<?xml version="1.0" standalone="no"?>
<!DOCTYPE svg PUBLIC "-//W3C//DTD SVG 20010904//EN"
 "http://www.w3.org/TR/2001/REC-SVG-20010904/DTD/svg10.dtd">
<svg version="1.0" xmlns="http://www.w3.org/2000/svg"
 width="512.000000pt" height="512.000000pt" viewBox="0 0 512.000000 512.000000"
 preserveAspectRatio="xMidYMid meet">

<g transform="translate(0.000000,512.000000) scale(0.100000,-0.100000)"
fill="#000000" stroke="none">
<path d="M2397 5110 c-199 -25 -353 -72 -528 -162 -299 -153 -551 -413 -687
-708 -100 -219 -142 -408 -142 -649 0 -417 167 -898 437 -1257 29 -39 53 -73
53 -77 0 -3 -165 -7 -367 -10 -400 -4 -424 -7 -564 -67 -181 -77 -351 -243
-408 -400 -46 -125 -64 -394 -42 -600 14 -133 97 -677 113 -738 27 -111 120
-252 208 -318 49 -36 155 -88 215 -105 75 -21 3675 -21 3750 0 60 17 166 69
215 105 88 66 181 207 208 318 16 61 99 605 113 738 22 206 4 475 -42 600 -57
157 -227 323 -408 400 -140 60 -164 63 -563 67 l-368 5 44 56 c101 132 218
335 282 489 228 549 232 1032 14 1475 -213 430 -626 739 -1104 824 -101 18
-338 26 -429 14z m393 -206 c397 -63 758 -326 954 -694 140 -264 184 -560 130
-875 -99 -583 -485 -1152 -926 -1368 -145 -71 -229 -91 -383 -92 -146 0 -222
17 -359 79 -583 266 -1052 1145 -963 1806 21 156 57 272 126 415 69 141 150
255 259 363 310 305 723 435 1162 366z m-995 -2915 c237 -203 503 -309 773
-309 262 1 503 96 753 298 l77 62 444 0 c494 0 505 -1 637 -67 83 -42 192
-141 234 -213 38 -66 57 -150 64 -285 7 -153 -6 -286 -67 -682 -40 -252 -55
-328 -75 -369 -35 -71 -137 -165 -212 -196 l-58 -23 -1805 0 -1805 0 -58 23
c-75 31 -177 125 -212 196 -20 41 -35 117 -75 369 -61 396 -74 529 -67 682 7
135 26 219 64 285 42 72 151 171 234 213 130 65 135 66 639 66 l455 1 60 -51z"/>
</g>
</svg>
